Coordinates
version=1
nRows=21
nColumns=12
inDegrees=yes

Units are S.I. units (second, meters, Newtons, ...)
Angles are in degrees

endheader
time	SC_y	SC_z	SC_x	AC_y	AC_z	AC_x	GH_y	GH_z	GH_yy	EL_x	PS_y
       0.0              -46.02          4.319          18.75          44.22          2.558         -11.75          156.1          34.22         -99.42          136.2          27.51
   0.03109              -46.02          4.324          18.75          44.22          2.555         -11.75          156.0          34.22         -99.41          136.2          27.53
   0.06219              -46.01          4.329          18.75          44.22          2.552         -11.75          156.0          34.22         -99.39          136.2          27.54
   0.09328              -46.01          4.335          18.74          44.22          2.548         -11.74          156.0          34.21         -99.38          136.2          27.55
    0.1244              -46.01          4.341          18.74          44.23          2.545         -11.74          155.9          34.21         -99.37          136.2          27.56
    0.1555               -46.0          4.347          18.74          44.23          2.541         -11.74          155.9          34.21         -99.36          136.2          27.57
    0.1866               -46.0          4.354          18.73          44.24          2.536         -11.74          155.9           34.2         -99.34          136.1          27.59
    0.2177              -45.99          4.361          18.73          44.24          2.532         -11.74          155.8           34.2         -99.33          136.1           27.6
    0.2488              -45.99          4.369          18.73          44.25          2.527         -11.74          155.8           34.2         -99.31          136.1          27.62
    0.2798              -45.98          4.377          18.72          44.25          2.522         -11.74          155.7          34.19          -99.3          136.1          27.64
    0.3109              -45.98          4.386          18.72          44.26          2.516         -11.73          155.7          34.19         -99.28          136.1          27.66
     0.342              -45.97          4.395          18.71          44.26           2.51         -11.73          155.6          34.18         -99.26          136.1          27.68
    0.3731              -45.97          4.406          18.71          44.27          2.504         -11.73          155.5          34.18         -99.24          136.1           27.7
    0.4042              -45.96          4.417           18.7          44.28          2.497         -11.73          155.5          34.17         -99.22          136.1          27.72
    0.4353              -45.95          4.429           18.7          44.28          2.489         -11.72          155.4          34.16         -99.19          136.1          27.75
    0.4664              -45.95          4.442          18.69          44.29          2.481         -11.72          155.3          34.16         -99.17          136.1          27.78
    0.4975              -45.94          4.456          18.68           44.3          2.472         -11.72          155.2          34.15         -99.14          136.1          27.81
    0.5286              -45.93          4.472          18.68          44.31          2.463         -11.71          155.1          34.14         -99.11          136.1          27.84
    0.5597              -45.92          4.489          18.67          44.32          2.452         -11.71          155.0          34.13         -99.07          136.1          27.87
    0.5908              -45.91          4.507          18.66          44.33           2.44         -11.71          154.9          34.13         -99.03          136.1          27.91
    0.6219               -45.9          4.527          18.65          44.34          2.428          -11.7          154.8          34.12         -98.99          136.1          27.96
